<mxfile host="app.diagrams.net" agent="Mozilla/5.0 (Windows NT 10.0; Win64; x64) AppleWebKit/537.36 (KHTML, like Gecko) Chrome/127.0.0.0 Safari/537.36 Edg/127.0.0.0" version="24.7.6">
  <diagram name="PÃ¡gina-1" id="Rz0p--mW4gcX2LE3DJFh">
    <mxGraphModel dx="746" dy="465" grid="1" gridSize="10" guides="1" tooltips="1" connect="1" arrows="1" fold="1" page="1" pageScale="1" pageWidth="827" pageHeight="1169" math="0" shadow="0">
      <root>
        <mxCell id="0" />
        <mxCell id="1" parent="0" />
        <mxCell id="GUBC73we8kIBoWk9MkpT-8" style="edgeStyle=orthogonalEdgeStyle;rounded=0;orthogonalLoop=1;jettySize=auto;html=1;exitX=1;exitY=0.5;exitDx=0;exitDy=0;entryX=0;entryY=0.5;entryDx=0;entryDy=0;" edge="1" parent="1" source="GUBC73we8kIBoWk9MkpT-1" target="GUBC73we8kIBoWk9MkpT-6">
          <mxGeometry relative="1" as="geometry" />
        </mxCell>
        <mxCell id="GUBC73we8kIBoWk9MkpT-1" value="Aluno" style="whiteSpace=wrap;html=1;" vertex="1" parent="1">
          <mxGeometry x="10" y="130" width="120" height="60" as="geometry" />
        </mxCell>
        <mxCell id="GUBC73we8kIBoWk9MkpT-13" style="edgeStyle=orthogonalEdgeStyle;rounded=0;orthogonalLoop=1;jettySize=auto;html=1;exitX=0;exitY=0.5;exitDx=0;exitDy=0;entryX=1;entryY=0.5;entryDx=0;entryDy=0;" edge="1" parent="1" source="GUBC73we8kIBoWk9MkpT-2" target="GUBC73we8kIBoWk9MkpT-7">
          <mxGeometry relative="1" as="geometry" />
        </mxCell>
        <mxCell id="GUBC73we8kIBoWk9MkpT-2" value="Professor" style="whiteSpace=wrap;html=1;" vertex="1" parent="1">
          <mxGeometry x="630" y="130" width="120" height="60" as="geometry" />
        </mxCell>
        <mxCell id="GUBC73we8kIBoWk9MkpT-5" value="Turma" style="rounded=0;whiteSpace=wrap;html=1;" vertex="1" parent="1">
          <mxGeometry x="320" y="130" width="120" height="60" as="geometry" />
        </mxCell>
        <mxCell id="GUBC73we8kIBoWk9MkpT-9" style="edgeStyle=orthogonalEdgeStyle;rounded=0;orthogonalLoop=1;jettySize=auto;html=1;exitX=1;exitY=0.5;exitDx=0;exitDy=0;entryX=0;entryY=0.5;entryDx=0;entryDy=0;" edge="1" parent="1" source="GUBC73we8kIBoWk9MkpT-6" target="GUBC73we8kIBoWk9MkpT-5">
          <mxGeometry relative="1" as="geometry" />
        </mxCell>
        <mxCell id="GUBC73we8kIBoWk9MkpT-6" value="Faz parte" style="rhombus;whiteSpace=wrap;html=1;" vertex="1" parent="1">
          <mxGeometry x="190" y="120" width="80" height="80" as="geometry" />
        </mxCell>
        <mxCell id="GUBC73we8kIBoWk9MkpT-14" style="edgeStyle=orthogonalEdgeStyle;rounded=0;orthogonalLoop=1;jettySize=auto;html=1;exitX=0;exitY=0.5;exitDx=0;exitDy=0;entryX=1;entryY=0.5;entryDx=0;entryDy=0;" edge="1" parent="1" source="GUBC73we8kIBoWk9MkpT-7" target="GUBC73we8kIBoWk9MkpT-5">
          <mxGeometry relative="1" as="geometry" />
        </mxCell>
        <mxCell id="GUBC73we8kIBoWk9MkpT-7" value="Ministrada por" style="rhombus;whiteSpace=wrap;html=1;" vertex="1" parent="1">
          <mxGeometry x="500" y="120" width="80" height="80" as="geometry" />
        </mxCell>
        <mxCell id="GUBC73we8kIBoWk9MkpT-10" value="1" style="text;html=1;align=center;verticalAlign=middle;resizable=0;points=[];autosize=1;strokeColor=none;fillColor=none;" vertex="1" parent="1">
          <mxGeometry x="290" y="128" width="30" height="30" as="geometry" />
        </mxCell>
        <mxCell id="GUBC73we8kIBoWk9MkpT-11" value="N" style="text;html=1;align=center;verticalAlign=middle;resizable=0;points=[];autosize=1;strokeColor=none;fillColor=none;" vertex="1" parent="1">
          <mxGeometry x="135" y="128" width="30" height="30" as="geometry" />
        </mxCell>
        <mxCell id="GUBC73we8kIBoWk9MkpT-12" value="1" style="text;html=1;align=center;verticalAlign=middle;resizable=0;points=[];autosize=1;strokeColor=none;fillColor=none;" vertex="1" parent="1">
          <mxGeometry x="595" y="128" width="30" height="30" as="geometry" />
        </mxCell>
        <mxCell id="GUBC73we8kIBoWk9MkpT-15" value="N" style="text;html=1;align=center;verticalAlign=middle;resizable=0;points=[];autosize=1;strokeColor=none;fillColor=none;" vertex="1" parent="1">
          <mxGeometry x="450" y="128" width="30" height="30" as="geometry" />
        </mxCell>
        <mxCell id="GUBC73we8kIBoWk9MkpT-16" value="Aluno" style="shape=table;startSize=30;container=1;collapsible=0;childLayout=tableLayout;fixedRows=1;rowLines=0;fontStyle=0;strokeColor=default;fontSize=16;" vertex="1" parent="1">
          <mxGeometry x="90" y="270" width="580" height="150" as="geometry" />
        </mxCell>
        <mxCell id="GUBC73we8kIBoWk9MkpT-17" value="" style="shape=tableRow;horizontal=0;startSize=0;swimlaneHead=0;swimlaneBody=0;top=0;left=0;bottom=0;right=0;collapsible=0;dropTarget=0;fillColor=none;points=[[0,0.5],[1,0.5]];portConstraint=eastwest;strokeColor=inherit;fontSize=16;" vertex="1" parent="GUBC73we8kIBoWk9MkpT-16">
          <mxGeometry y="30" width="580" height="30" as="geometry" />
        </mxCell>
        <mxCell id="GUBC73we8kIBoWk9MkpT-18" value="PK" style="shape=partialRectangle;html=1;whiteSpace=wrap;connectable=0;fillColor=none;top=0;left=0;bottom=0;right=0;overflow=hidden;pointerEvents=1;strokeColor=inherit;fontSize=16;" vertex="1" parent="GUBC73we8kIBoWk9MkpT-17">
          <mxGeometry width="128" height="30" as="geometry">
            <mxRectangle width="128" height="30" as="alternateBounds" />
          </mxGeometry>
        </mxCell>
        <mxCell id="GUBC73we8kIBoWk9MkpT-19" value="&lt;font style=&quot;font-size: 16px;&quot;&gt;id_aluno: INT NOT NULL AUTO_INCREMENT&lt;/font&gt;" style="shape=partialRectangle;html=1;whiteSpace=wrap;connectable=0;fillColor=none;top=0;left=0;bottom=0;right=0;align=left;spacingLeft=6;overflow=hidden;strokeColor=inherit;fontSize=16;" vertex="1" parent="GUBC73we8kIBoWk9MkpT-17">
          <mxGeometry x="128" width="452" height="30" as="geometry">
            <mxRectangle width="452" height="30" as="alternateBounds" />
          </mxGeometry>
        </mxCell>
        <mxCell id="GUBC73we8kIBoWk9MkpT-20" value="" style="shape=tableRow;horizontal=0;startSize=0;swimlaneHead=0;swimlaneBody=0;top=0;left=0;bottom=0;right=0;collapsible=0;dropTarget=0;fillColor=none;points=[[0,0.5],[1,0.5]];portConstraint=eastwest;strokeColor=inherit;fontSize=16;" vertex="1" parent="GUBC73we8kIBoWk9MkpT-16">
          <mxGeometry y="60" width="580" height="30" as="geometry" />
        </mxCell>
        <mxCell id="GUBC73we8kIBoWk9MkpT-21" value="" style="shape=partialRectangle;html=1;whiteSpace=wrap;connectable=0;fillColor=none;top=0;left=0;bottom=0;right=0;overflow=hidden;strokeColor=inherit;fontSize=16;" vertex="1" parent="GUBC73we8kIBoWk9MkpT-20">
          <mxGeometry width="128" height="30" as="geometry">
            <mxRectangle width="128" height="30" as="alternateBounds" />
          </mxGeometry>
        </mxCell>
        <mxCell id="GUBC73we8kIBoWk9MkpT-22" value="nome_aluno: VARCHAR(255) NOT NULL" style="shape=partialRectangle;html=1;whiteSpace=wrap;connectable=0;fillColor=none;top=0;left=0;bottom=0;right=0;align=left;spacingLeft=6;overflow=hidden;strokeColor=inherit;fontSize=16;" vertex="1" parent="GUBC73we8kIBoWk9MkpT-20">
          <mxGeometry x="128" width="452" height="30" as="geometry">
            <mxRectangle width="452" height="30" as="alternateBounds" />
          </mxGeometry>
        </mxCell>
        <mxCell id="GUBC73we8kIBoWk9MkpT-23" value="" style="shape=tableRow;horizontal=0;startSize=0;swimlaneHead=0;swimlaneBody=0;top=0;left=0;bottom=0;right=0;collapsible=0;dropTarget=0;fillColor=none;points=[[0,0.5],[1,0.5]];portConstraint=eastwest;strokeColor=inherit;fontSize=16;" vertex="1" parent="GUBC73we8kIBoWk9MkpT-16">
          <mxGeometry y="90" width="580" height="30" as="geometry" />
        </mxCell>
        <mxCell id="GUBC73we8kIBoWk9MkpT-24" value="" style="shape=partialRectangle;html=1;whiteSpace=wrap;connectable=0;fillColor=none;top=0;left=0;bottom=0;right=0;overflow=hidden;strokeColor=inherit;fontSize=16;" vertex="1" parent="GUBC73we8kIBoWk9MkpT-23">
          <mxGeometry width="128" height="30" as="geometry">
            <mxRectangle width="128" height="30" as="alternateBounds" />
          </mxGeometry>
        </mxCell>
        <mxCell id="GUBC73we8kIBoWk9MkpT-25" value="media_aluno: DECIMAL(3,1) NOT NULL DEFAULT 0.0" style="shape=partialRectangle;html=1;whiteSpace=wrap;connectable=0;fillColor=none;top=0;left=0;bottom=0;right=0;align=left;spacingLeft=6;overflow=hidden;strokeColor=inherit;fontSize=16;" vertex="1" parent="GUBC73we8kIBoWk9MkpT-23">
          <mxGeometry x="128" width="452" height="30" as="geometry">
            <mxRectangle width="452" height="30" as="alternateBounds" />
          </mxGeometry>
        </mxCell>
        <mxCell id="GUBC73we8kIBoWk9MkpT-52" value="" style="shape=tableRow;horizontal=0;startSize=0;swimlaneHead=0;swimlaneBody=0;top=0;left=0;bottom=0;right=0;collapsible=0;dropTarget=0;fillColor=none;points=[[0,0.5],[1,0.5]];portConstraint=eastwest;strokeColor=inherit;fontSize=16;" vertex="1" parent="GUBC73we8kIBoWk9MkpT-16">
          <mxGeometry y="120" width="580" height="30" as="geometry" />
        </mxCell>
        <mxCell id="GUBC73we8kIBoWk9MkpT-53" value="FK" style="shape=partialRectangle;html=1;whiteSpace=wrap;connectable=0;fillColor=none;top=0;left=0;bottom=0;right=0;overflow=hidden;strokeColor=inherit;fontSize=16;" vertex="1" parent="GUBC73we8kIBoWk9MkpT-52">
          <mxGeometry width="128" height="30" as="geometry">
            <mxRectangle width="128" height="30" as="alternateBounds" />
          </mxGeometry>
        </mxCell>
        <mxCell id="GUBC73we8kIBoWk9MkpT-54" value="id_turma: INT NOT NULL&amp;nbsp;" style="shape=partialRectangle;html=1;whiteSpace=wrap;connectable=0;fillColor=none;top=0;left=0;bottom=0;right=0;align=left;spacingLeft=6;overflow=hidden;strokeColor=inherit;fontSize=16;" vertex="1" parent="GUBC73we8kIBoWk9MkpT-52">
          <mxGeometry x="128" width="452" height="30" as="geometry">
            <mxRectangle width="452" height="30" as="alternateBounds" />
          </mxGeometry>
        </mxCell>
        <mxCell id="GUBC73we8kIBoWk9MkpT-55" value="Turma" style="shape=table;startSize=30;container=1;collapsible=0;childLayout=tableLayout;fixedRows=1;rowLines=0;fontStyle=0;strokeColor=default;fontSize=16;" vertex="1" parent="1">
          <mxGeometry x="90" y="460" width="580" height="150" as="geometry" />
        </mxCell>
        <mxCell id="GUBC73we8kIBoWk9MkpT-56" value="" style="shape=tableRow;horizontal=0;startSize=0;swimlaneHead=0;swimlaneBody=0;top=0;left=0;bottom=0;right=0;collapsible=0;dropTarget=0;fillColor=none;points=[[0,0.5],[1,0.5]];portConstraint=eastwest;strokeColor=inherit;fontSize=16;" vertex="1" parent="GUBC73we8kIBoWk9MkpT-55">
          <mxGeometry y="30" width="580" height="30" as="geometry" />
        </mxCell>
        <mxCell id="GUBC73we8kIBoWk9MkpT-57" value="PK" style="shape=partialRectangle;html=1;whiteSpace=wrap;connectable=0;fillColor=none;top=0;left=0;bottom=0;right=0;overflow=hidden;pointerEvents=1;strokeColor=inherit;fontSize=16;" vertex="1" parent="GUBC73we8kIBoWk9MkpT-56">
          <mxGeometry width="128" height="30" as="geometry">
            <mxRectangle width="128" height="30" as="alternateBounds" />
          </mxGeometry>
        </mxCell>
        <mxCell id="GUBC73we8kIBoWk9MkpT-58" value="&lt;font style=&quot;font-size: 16px;&quot;&gt;id_turma: INT NOT NULL AUTO_INCREMENT&lt;/font&gt;" style="shape=partialRectangle;html=1;whiteSpace=wrap;connectable=0;fillColor=none;top=0;left=0;bottom=0;right=0;align=left;spacingLeft=6;overflow=hidden;strokeColor=inherit;fontSize=16;" vertex="1" parent="GUBC73we8kIBoWk9MkpT-56">
          <mxGeometry x="128" width="452" height="30" as="geometry">
            <mxRectangle width="452" height="30" as="alternateBounds" />
          </mxGeometry>
        </mxCell>
        <mxCell id="GUBC73we8kIBoWk9MkpT-59" value="" style="shape=tableRow;horizontal=0;startSize=0;swimlaneHead=0;swimlaneBody=0;top=0;left=0;bottom=0;right=0;collapsible=0;dropTarget=0;fillColor=none;points=[[0,0.5],[1,0.5]];portConstraint=eastwest;strokeColor=inherit;fontSize=16;" vertex="1" parent="GUBC73we8kIBoWk9MkpT-55">
          <mxGeometry y="60" width="580" height="30" as="geometry" />
        </mxCell>
        <mxCell id="GUBC73we8kIBoWk9MkpT-60" value="" style="shape=partialRectangle;html=1;whiteSpace=wrap;connectable=0;fillColor=none;top=0;left=0;bottom=0;right=0;overflow=hidden;strokeColor=inherit;fontSize=16;" vertex="1" parent="GUBC73we8kIBoWk9MkpT-59">
          <mxGeometry width="128" height="30" as="geometry">
            <mxRectangle width="128" height="30" as="alternateBounds" />
          </mxGeometry>
        </mxCell>
        <mxCell id="GUBC73we8kIBoWk9MkpT-61" value="turno_turma: VARCHAR(255) NOT NULL DEFAULT &#39;Integral&#39;" style="shape=partialRectangle;html=1;whiteSpace=wrap;connectable=0;fillColor=none;top=0;left=0;bottom=0;right=0;align=left;spacingLeft=6;overflow=hidden;strokeColor=inherit;fontSize=16;" vertex="1" parent="GUBC73we8kIBoWk9MkpT-59">
          <mxGeometry x="128" width="452" height="30" as="geometry">
            <mxRectangle width="452" height="30" as="alternateBounds" />
          </mxGeometry>
        </mxCell>
        <mxCell id="GUBC73we8kIBoWk9MkpT-62" value="" style="shape=tableRow;horizontal=0;startSize=0;swimlaneHead=0;swimlaneBody=0;top=0;left=0;bottom=0;right=0;collapsible=0;dropTarget=0;fillColor=none;points=[[0,0.5],[1,0.5]];portConstraint=eastwest;strokeColor=inherit;fontSize=16;" vertex="1" parent="GUBC73we8kIBoWk9MkpT-55">
          <mxGeometry y="90" width="580" height="30" as="geometry" />
        </mxCell>
        <mxCell id="GUBC73we8kIBoWk9MkpT-63" value="" style="shape=partialRectangle;html=1;whiteSpace=wrap;connectable=0;fillColor=none;top=0;left=0;bottom=0;right=0;overflow=hidden;strokeColor=inherit;fontSize=16;" vertex="1" parent="GUBC73we8kIBoWk9MkpT-62">
          <mxGeometry width="128" height="30" as="geometry">
            <mxRectangle width="128" height="30" as="alternateBounds" />
          </mxGeometry>
        </mxCell>
        <mxCell id="GUBC73we8kIBoWk9MkpT-64" value="sala_turma: INT NOT NULL" style="shape=partialRectangle;html=1;whiteSpace=wrap;connectable=0;fillColor=none;top=0;left=0;bottom=0;right=0;align=left;spacingLeft=6;overflow=hidden;strokeColor=inherit;fontSize=16;" vertex="1" parent="GUBC73we8kIBoWk9MkpT-62">
          <mxGeometry x="128" width="452" height="30" as="geometry">
            <mxRectangle width="452" height="30" as="alternateBounds" />
          </mxGeometry>
        </mxCell>
        <mxCell id="GUBC73we8kIBoWk9MkpT-65" value="" style="shape=tableRow;horizontal=0;startSize=0;swimlaneHead=0;swimlaneBody=0;top=0;left=0;bottom=0;right=0;collapsible=0;dropTarget=0;fillColor=none;points=[[0,0.5],[1,0.5]];portConstraint=eastwest;strokeColor=inherit;fontSize=16;" vertex="1" parent="GUBC73we8kIBoWk9MkpT-55">
          <mxGeometry y="120" width="580" height="30" as="geometry" />
        </mxCell>
        <mxCell id="GUBC73we8kIBoWk9MkpT-66" value="FK" style="shape=partialRectangle;html=1;whiteSpace=wrap;connectable=0;fillColor=none;top=0;left=0;bottom=0;right=0;overflow=hidden;strokeColor=inherit;fontSize=16;" vertex="1" parent="GUBC73we8kIBoWk9MkpT-65">
          <mxGeometry width="128" height="30" as="geometry">
            <mxRectangle width="128" height="30" as="alternateBounds" />
          </mxGeometry>
        </mxCell>
        <mxCell id="GUBC73we8kIBoWk9MkpT-67" value="id_professor: INT NOT NULL&amp;nbsp;" style="shape=partialRectangle;html=1;whiteSpace=wrap;connectable=0;fillColor=none;top=0;left=0;bottom=0;right=0;align=left;spacingLeft=6;overflow=hidden;strokeColor=inherit;fontSize=16;" vertex="1" parent="GUBC73we8kIBoWk9MkpT-65">
          <mxGeometry x="128" width="452" height="30" as="geometry">
            <mxRectangle width="452" height="30" as="alternateBounds" />
          </mxGeometry>
        </mxCell>
        <mxCell id="GUBC73we8kIBoWk9MkpT-68" value="Professor" style="shape=table;startSize=30;container=1;collapsible=0;childLayout=tableLayout;fixedRows=1;rowLines=0;fontStyle=0;strokeColor=default;fontSize=16;" vertex="1" parent="1">
          <mxGeometry x="90" y="650" width="580" height="120" as="geometry" />
        </mxCell>
        <mxCell id="GUBC73we8kIBoWk9MkpT-69" value="" style="shape=tableRow;horizontal=0;startSize=0;swimlaneHead=0;swimlaneBody=0;top=0;left=0;bottom=0;right=0;collapsible=0;dropTarget=0;fillColor=none;points=[[0,0.5],[1,0.5]];portConstraint=eastwest;strokeColor=inherit;fontSize=16;" vertex="1" parent="GUBC73we8kIBoWk9MkpT-68">
          <mxGeometry y="30" width="580" height="30" as="geometry" />
        </mxCell>
        <mxCell id="GUBC73we8kIBoWk9MkpT-70" value="PK" style="shape=partialRectangle;html=1;whiteSpace=wrap;connectable=0;fillColor=none;top=0;left=0;bottom=0;right=0;overflow=hidden;pointerEvents=1;strokeColor=inherit;fontSize=16;" vertex="1" parent="GUBC73we8kIBoWk9MkpT-69">
          <mxGeometry width="128" height="30" as="geometry">
            <mxRectangle width="128" height="30" as="alternateBounds" />
          </mxGeometry>
        </mxCell>
        <mxCell id="GUBC73we8kIBoWk9MkpT-71" value="&lt;font style=&quot;font-size: 16px;&quot;&gt;id_professor: INT NOT NULL AUTO_INCREMENT&lt;/font&gt;" style="shape=partialRectangle;html=1;whiteSpace=wrap;connectable=0;fillColor=none;top=0;left=0;bottom=0;right=0;align=left;spacingLeft=6;overflow=hidden;strokeColor=inherit;fontSize=16;" vertex="1" parent="GUBC73we8kIBoWk9MkpT-69">
          <mxGeometry x="128" width="452" height="30" as="geometry">
            <mxRectangle width="452" height="30" as="alternateBounds" />
          </mxGeometry>
        </mxCell>
        <mxCell id="GUBC73we8kIBoWk9MkpT-72" value="" style="shape=tableRow;horizontal=0;startSize=0;swimlaneHead=0;swimlaneBody=0;top=0;left=0;bottom=0;right=0;collapsible=0;dropTarget=0;fillColor=none;points=[[0,0.5],[1,0.5]];portConstraint=eastwest;strokeColor=inherit;fontSize=16;" vertex="1" parent="GUBC73we8kIBoWk9MkpT-68">
          <mxGeometry y="60" width="580" height="30" as="geometry" />
        </mxCell>
        <mxCell id="GUBC73we8kIBoWk9MkpT-73" value="" style="shape=partialRectangle;html=1;whiteSpace=wrap;connectable=0;fillColor=none;top=0;left=0;bottom=0;right=0;overflow=hidden;strokeColor=inherit;fontSize=16;" vertex="1" parent="GUBC73we8kIBoWk9MkpT-72">
          <mxGeometry width="128" height="30" as="geometry">
            <mxRectangle width="128" height="30" as="alternateBounds" />
          </mxGeometry>
        </mxCell>
        <mxCell id="GUBC73we8kIBoWk9MkpT-74" value="nome_professor: VARCHAR(255) NOT NULL" style="shape=partialRectangle;html=1;whiteSpace=wrap;connectable=0;fillColor=none;top=0;left=0;bottom=0;right=0;align=left;spacingLeft=6;overflow=hidden;strokeColor=inherit;fontSize=16;" vertex="1" parent="GUBC73we8kIBoWk9MkpT-72">
          <mxGeometry x="128" width="452" height="30" as="geometry">
            <mxRectangle width="452" height="30" as="alternateBounds" />
          </mxGeometry>
        </mxCell>
        <mxCell id="GUBC73we8kIBoWk9MkpT-75" value="" style="shape=tableRow;horizontal=0;startSize=0;swimlaneHead=0;swimlaneBody=0;top=0;left=0;bottom=0;right=0;collapsible=0;dropTarget=0;fillColor=none;points=[[0,0.5],[1,0.5]];portConstraint=eastwest;strokeColor=inherit;fontSize=16;" vertex="1" parent="GUBC73we8kIBoWk9MkpT-68">
          <mxGeometry y="90" width="580" height="30" as="geometry" />
        </mxCell>
        <mxCell id="GUBC73we8kIBoWk9MkpT-76" value="" style="shape=partialRectangle;html=1;whiteSpace=wrap;connectable=0;fillColor=none;top=0;left=0;bottom=0;right=0;overflow=hidden;strokeColor=inherit;fontSize=16;" vertex="1" parent="GUBC73we8kIBoWk9MkpT-75">
          <mxGeometry width="128" height="30" as="geometry">
            <mxRectangle width="128" height="30" as="alternateBounds" />
          </mxGeometry>
        </mxCell>
        <mxCell id="GUBC73we8kIBoWk9MkpT-77" value="segmento_professor: VARCHAR(255) NOT NULL" style="shape=partialRectangle;html=1;whiteSpace=wrap;connectable=0;fillColor=none;top=0;left=0;bottom=0;right=0;align=left;spacingLeft=6;overflow=hidden;strokeColor=inherit;fontSize=16;" vertex="1" parent="GUBC73we8kIBoWk9MkpT-75">
          <mxGeometry x="128" width="452" height="30" as="geometry">
            <mxRectangle width="452" height="30" as="alternateBounds" />
          </mxGeometry>
        </mxCell>
        <mxCell id="GUBC73we8kIBoWk9MkpT-81" style="edgeStyle=orthogonalEdgeStyle;rounded=0;orthogonalLoop=1;jettySize=auto;html=1;exitX=1;exitY=0.5;exitDx=0;exitDy=0;entryX=1;entryY=0.5;entryDx=0;entryDy=0;" edge="1" parent="1" source="GUBC73we8kIBoWk9MkpT-65" target="GUBC73we8kIBoWk9MkpT-69">
          <mxGeometry relative="1" as="geometry" />
        </mxCell>
        <mxCell id="GUBC73we8kIBoWk9MkpT-82" style="edgeStyle=orthogonalEdgeStyle;rounded=0;orthogonalLoop=1;jettySize=auto;html=1;exitX=1;exitY=0.5;exitDx=0;exitDy=0;entryX=1;entryY=0.5;entryDx=0;entryDy=0;" edge="1" parent="1" source="GUBC73we8kIBoWk9MkpT-52" target="GUBC73we8kIBoWk9MkpT-56">
          <mxGeometry relative="1" as="geometry" />
        </mxCell>
      </root>
    </mxGraphModel>
  </diagram>
</mxfile>
